STARTFONT 2.1
FONT --Systexts-Regular-R-Normal--13-130-72-72-P-90-FONTSPECIFIC-0
SIZE 13 72 72
FONTBOUNDINGBOX 56 13 0 -2
METRICSSET 2
STARTPROPERTIES 19
FONT_ASCENT 11
FONT_DESCENT 2
PIXEL_SIZE 13
RESOLUTION_X 72
RESOLUTION_Y 72
POINT_SIZE 130
FACE_NAME "System Text"
FOUNDRY ""
FAMILY_NAME "Systexts"
WEIGHT_NAME "Regular"
RELATIVE_WEIGHT 50
SLANT "R"
SPACING "P"
SETWIDTH_NAME "Normal"
RELATIVE_SETWIDTH 50
ADD_STYLE_NAME ""
AVERAGE_WIDTH 90
CHARSET_REGISTRY "FONTSPECIFIC"
CHARSET_ENCODING "0"
ENDPROPERTIES
CHARS 196
STARTCHAR char08
ENCODING 8
SWIDTH 846 0
DWIDTH 11 0
BBX 10 9 0 0
VVECTOR 5 11
SWIDTH1 0 -1000
DWIDTH1 0 -13
BITMAP 
8000
8800
9800
B800
FFC0
B800
9800
8800
8000
ENDCHAR
STARTCHAR char09
ENCODING 9
SWIDTH 846 0
DWIDTH 11 0
BBX 10 9 0 0
VVECTOR 5 11
SWIDTH1 0 -1000
DWIDTH1 0 -13
BITMAP 
0040
0440
0640
0740
FFC0
0740
0640
0440
0040
ENDCHAR
STARTCHAR char0C
ENCODING 12
SWIDTH 923 0
DWIDTH 12 0
BBX 11 10 0 0
VVECTOR 6 11
SWIDTH1 0 -1000
DWIDTH1 0 -13
BITMAP 
7FC0
C060
C060
C060
C060
C060
C460
CE60
1F00
3F80
ENDCHAR
STARTCHAR char0D
ENCODING 13
SWIDTH 846 0
DWIDTH 11 0
BBX 10 9 0 0
VVECTOR 5 11
SWIDTH1 0 -1000
DWIDTH1 0 -13
BITMAP 
00C0
00C0
10C0
30C0
70C0
FF80
7000
3000
1000
ENDCHAR
STARTCHAR char0E
ENCODING 14
SWIDTH 1000 0
DWIDTH 13 0
BBX 13 12 0 -2
VVECTOR 7 11
SWIDTH1 0 -1000
DWIDTH1 0 -13
BITMAP 
0070
00E0
0080
1E78
7FF0
FFE0
FFE0
FFE0
FFE0
7FF0
3FF8
1E70
ENDCHAR
STARTCHAR char0F
ENCODING 15
SWIDTH 4385 0
DWIDTH 57 0
BBX 56 12 0 -1
VVECTOR 28 11
SWIDTH1 0 -1000
DWIDTH1 0 -13
BITMAP 
0000F01C000000
0001F8180E0000
0007E0C07C003F
001F83C398FFC0
007E0F3C1F0E06
01F83FC0F8781F
07E0FC0F39E0FE
1FC0707873C7DC
7F0001E1E7FF38
FE0003FF87F870
7FFFF1FC03E060
3FFFF800000000
ENDCHAR
STARTCHAR char1C
ENCODING 28
SWIDTH 846 0
DWIDTH 11 0
BBX 9 7 1 1
VVECTOR 6 11
SWIDTH1 0 -1000
DWIDTH1 0 -13
BITMAP 
1000
3000
7000
FF80
7000
3000
1000
ENDCHAR
STARTCHAR char1D
ENCODING 29
SWIDTH 846 0
DWIDTH 11 0
BBX 9 7 1 1
VVECTOR 6 11
SWIDTH1 0 -1000
DWIDTH1 0 -13
BITMAP 
0400
0600
0700
FF80
0700
0600
0400
ENDCHAR
STARTCHAR char1E
ENCODING 30
SWIDTH 846 0
DWIDTH 11 0
BBX 7 8 2 0
VVECTOR 6 11
SWIDTH1 0 -1000
DWIDTH1 0 -13
BITMAP 
10
38
7C
FE
10
10
10
10
ENDCHAR
STARTCHAR char1F
ENCODING 31
SWIDTH 846 0
DWIDTH 11 0
BBX 7 8 2 0
VVECTOR 6 11
SWIDTH1 0 -1000
DWIDTH1 0 -13
BITMAP 
10
10
10
10
FE
7C
38
10
ENDCHAR
STARTCHAR char20
ENCODING 32
SWIDTH 538 0
DWIDTH 7 0
BBX 0 0 7 -2
VVECTOR 7 -2
SWIDTH1 0 0
DWIDTH1 0 0
BITMAP 
ENDCHAR
STARTCHAR char21
ENCODING 33
SWIDTH 308 0
DWIDTH 4 0
BBX 2 8 1 0
VVECTOR 2 11
SWIDTH1 0 -1000
DWIDTH1 0 -13
BITMAP 
C0
C0
C0
C0
C0
C0
00
C0
ENDCHAR
STARTCHAR char22
ENCODING 34
SWIDTH 692 0
DWIDTH 9 0
BBX 6 3 1 5
VVECTOR 4 11
SWIDTH1 0 -1000
DWIDTH1 0 -13
BITMAP 
CC
CC
CC
ENDCHAR
STARTCHAR char23
ENCODING 35
SWIDTH 846 0
DWIDTH 11 0
BBX 8 8 1 0
VVECTOR 5 11
SWIDTH1 0 -1000
DWIDTH1 0 -13
BITMAP 
24
24
FF
24
24
FF
24
24
ENDCHAR
STARTCHAR char24
ENCODING 36
SWIDTH 692 0
DWIDTH 9 0
BBX 7 12 1 -2
VVECTOR 5 11
SWIDTH1 0 -1000
DWIDTH1 0 -13
BITMAP 
10
10
7C
C0
60
30
18
0C
06
7C
10
10
ENDCHAR
STARTCHAR char25
ENCODING 37
SWIDTH 1077 0
DWIDTH 14 0
BBX 13 8 0 0
VVECTOR 7 11
SWIDTH1 0 -1000
DWIDTH1 0 -13
BITMAP 
7860
CCC0
CD80
7B00
06F0
0D98
1998
30F0
ENDCHAR
STARTCHAR char26
ENCODING 38
SWIDTH 769 0
DWIDTH 10 0
BBX 9 8 0 0
VVECTOR 5 11
SWIDTH1 0 -1000
DWIDTH1 0 -13
BITMAP 
7C00
C000
C000
7380
C300
C300
C300
7E00
ENDCHAR
STARTCHAR char27
ENCODING 39
SWIDTH 308 0
DWIDTH 4 0
BBX 2 3 1 5
VVECTOR 2 11
SWIDTH1 0 -1000
DWIDTH1 0 -13
BITMAP 
C0
C0
C0
ENDCHAR
STARTCHAR char28
ENCODING 40
SWIDTH 538 0
DWIDTH 7 0
BBX 5 12 1 -2
VVECTOR 4 11
SWIDTH1 0 -1000
DWIDTH1 0 -13
BITMAP 
78
C0
C0
C0
C0
C0
C0
C0
C0
C0
C0
78
ENDCHAR
STARTCHAR char29
ENCODING 41
SWIDTH 538 0
DWIDTH 7 0
BBX 5 12 1 -2
VVECTOR 4 11
SWIDTH1 0 -1000
DWIDTH1 0 -13
BITMAP 
F0
18
18
18
18
18
18
18
18
18
18
F0
ENDCHAR
STARTCHAR char2A
ENCODING 42
SWIDTH 846 0
DWIDTH 11 0
BBX 9 5 1 3
VVECTOR 6 11
SWIDTH1 0 -1000
DWIDTH1 0 -13
BITMAP 
6300
3600
FF80
3600
6300
ENDCHAR
STARTCHAR char2B
ENCODING 43
SWIDTH 846 0
DWIDTH 11 0
BBX 8 5 1 2
VVECTOR 5 11
SWIDTH1 0 -1000
DWIDTH1 0 -13
BITMAP 
18
18
FF
18
18
ENDCHAR
STARTCHAR char2C
ENCODING 44
SWIDTH 385 0
DWIDTH 5 0
BBX 2 4 1 -2
VVECTOR 2 11
SWIDTH1 0 -1000
DWIDTH1 0 -13
BITMAP 
C0
C0
40
80
ENDCHAR
STARTCHAR char2D
ENCODING 45
SWIDTH 846 0
DWIDTH 11 0
BBX 8 1 1 4
VVECTOR 5 11
SWIDTH1 0 -1000
DWIDTH1 0 -13
BITMAP 
FF
ENDCHAR
STARTCHAR char2E
ENCODING 46
SWIDTH 385 0
DWIDTH 5 0
BBX 2 2 1 0
VVECTOR 2 11
SWIDTH1 0 -1000
DWIDTH1 0 -13
BITMAP 
C0
C0
ENDCHAR
STARTCHAR char2F
ENCODING 47
SWIDTH 538 0
DWIDTH 7 0
BBX 5 8 1 0
VVECTOR 4 11
SWIDTH1 0 -1000
DWIDTH1 0 -13
BITMAP 
18
18
30
30
60
60
C0
C0
ENDCHAR
STARTCHAR char30
ENCODING 48
SWIDTH 692 0
DWIDTH 9 0
BBX 7 8 1 0
VVECTOR 5 11
SWIDTH1 0 -1000
DWIDTH1 0 -13
BITMAP 
7C
C6
C6
C6
C6
C6
C6
7C
ENDCHAR
STARTCHAR char31
ENCODING 49
SWIDTH 692 0
DWIDTH 9 0
BBX 6 8 2 0
VVECTOR 5 11
SWIDTH1 0 -1000
DWIDTH1 0 -13
BITMAP 
F0
30
30
30
30
30
30
FC
ENDCHAR
STARTCHAR char32
ENCODING 50
SWIDTH 692 0
DWIDTH 9 0
BBX 7 8 1 0
VVECTOR 5 11
SWIDTH1 0 -1000
DWIDTH1 0 -13
BITMAP 
7C
06
06
0C
18
30
60
FE
ENDCHAR
STARTCHAR char33
ENCODING 51
SWIDTH 692 0
DWIDTH 9 0
BBX 6 8 1 0
VVECTOR 4 11
SWIDTH1 0 -1000
DWIDTH1 0 -13
BITMAP 
F8
0C
0C
78
0C
0C
0C
F8
ENDCHAR
STARTCHAR char34
ENCODING 52
SWIDTH 692 0
DWIDTH 9 0
BBX 8 8 0 0
VVECTOR 4 11
SWIDTH1 0 -1000
DWIDTH1 0 -13
BITMAP 
0E
1E
36
66
C6
FF
06
06
ENDCHAR
STARTCHAR char35
ENCODING 53
SWIDTH 692 0
DWIDTH 9 0
BBX 6 8 1 0
VVECTOR 4 11
SWIDTH1 0 -1000
DWIDTH1 0 -13
BITMAP 
F8
C0
C0
F8
0C
0C
0C
F8
ENDCHAR
STARTCHAR char36
ENCODING 54
SWIDTH 692 0
DWIDTH 9 0
BBX 7 8 1 0
VVECTOR 5 11
SWIDTH1 0 -1000
DWIDTH1 0 -13
BITMAP 
7C
C0
C0
FC
C6
C6
C6
7C
ENDCHAR
STARTCHAR char37
ENCODING 55
SWIDTH 692 0
DWIDTH 9 0
BBX 7 8 1 0
VVECTOR 5 11
SWIDTH1 0 -1000
DWIDTH1 0 -13
BITMAP 
FE
06
0C
18
30
30
30
30
ENDCHAR
STARTCHAR char38
ENCODING 56
SWIDTH 692 0
DWIDTH 9 0
BBX 7 8 1 0
VVECTOR 5 11
SWIDTH1 0 -1000
DWIDTH1 0 -13
BITMAP 
7C
C6
C6
7C
C6
C6
C6
7C
ENDCHAR
STARTCHAR char39
ENCODING 57
SWIDTH 692 0
DWIDTH 9 0
BBX 7 8 1 0
VVECTOR 5 11
SWIDTH1 0 -1000
DWIDTH1 0 -13
BITMAP 
7C
C6
C6
C6
7E
06
06
7C
ENDCHAR
STARTCHAR char3A
ENCODING 58
SWIDTH 385 0
DWIDTH 5 0
BBX 2 6 1 0
VVECTOR 2 11
SWIDTH1 0 -1000
DWIDTH1 0 -13
BITMAP 
C0
C0
00
00
C0
C0
ENDCHAR
STARTCHAR char3B
ENCODING 59
SWIDTH 385 0
DWIDTH 5 0
BBX 2 8 1 -2
VVECTOR 2 11
SWIDTH1 0 -1000
DWIDTH1 0 -13
BITMAP 
C0
C0
00
00
C0
C0
40
80
ENDCHAR
STARTCHAR char3C
ENCODING 60
SWIDTH 692 0
DWIDTH 9 0
BBX 5 7 2 1
VVECTOR 5 11
SWIDTH1 0 -1000
DWIDTH1 0 -13
BITMAP 
18
30
60
C0
60
30
18
ENDCHAR
STARTCHAR char3D
ENCODING 61
SWIDTH 846 0
DWIDTH 11 0
BBX 8 3 1 3
VVECTOR 5 11
SWIDTH1 0 -1000
DWIDTH1 0 -13
BITMAP 
FF
00
FF
ENDCHAR
STARTCHAR char3E
ENCODING 62
SWIDTH 692 0
DWIDTH 9 0
BBX 5 7 2 1
VVECTOR 5 11
SWIDTH1 0 -1000
DWIDTH1 0 -13
BITMAP 
C0
60
30
18
30
60
C0
ENDCHAR
STARTCHAR char3F
ENCODING 63
SWIDTH 692 0
DWIDTH 9 0
BBX 7 8 1 0
VVECTOR 5 11
SWIDTH1 0 -1000
DWIDTH1 0 -13
BITMAP 
FC
06
0C
18
30
00
30
30
ENDCHAR
STARTCHAR char40
ENCODING 64
SWIDTH 1077 0
DWIDTH 14 0
BBX 12 8 1 0
VVECTOR 7 11
SWIDTH1 0 -1000
DWIDTH1 0 -13
BITMAP 
7FE0
C030
CFB0
D9B0
D9B0
CEE0
C000
7E00
ENDCHAR
STARTCHAR char41
ENCODING 65
SWIDTH 692 0
DWIDTH 9 0
BBX 8 8 0 0
VVECTOR 4 11
SWIDTH1 0 -1000
DWIDTH1 0 -13
BITMAP 
7E
C3
C3
C3
FF
C3
C3
C3
ENDCHAR
STARTCHAR char42
ENCODING 66
SWIDTH 692 0
DWIDTH 9 0
BBX 8 8 0 0
VVECTOR 4 11
SWIDTH1 0 -1000
DWIDTH1 0 -13
BITMAP 
FE
C3
C3
FE
C3
C3
C3
FE
ENDCHAR
STARTCHAR char43
ENCODING 67
SWIDTH 615 0
DWIDTH 8 0
BBX 7 8 0 0
VVECTOR 4 11
SWIDTH1 0 -1000
DWIDTH1 0 -13
BITMAP 
7E
C0
C0
C0
C0
C0
C0
7E
ENDCHAR
STARTCHAR char44
ENCODING 68
SWIDTH 692 0
DWIDTH 9 0
BBX 8 8 0 0
VVECTOR 4 11
SWIDTH1 0 -1000
DWIDTH1 0 -13
BITMAP 
FE
C3
C3
C3
C3
C3
C3
FE
ENDCHAR
STARTCHAR char45
ENCODING 69
SWIDTH 615 0
DWIDTH 8 0
BBX 7 8 0 0
VVECTOR 4 11
SWIDTH1 0 -1000
DWIDTH1 0 -13
BITMAP 
FE
C0
C0
FC
C0
C0
C0
FE
ENDCHAR
STARTCHAR char46
ENCODING 70
SWIDTH 615 0
DWIDTH 8 0
BBX 7 8 0 0
VVECTOR 4 11
SWIDTH1 0 -1000
DWIDTH1 0 -13
BITMAP 
FE
C0
C0
FC
C0
C0
C0
C0
ENDCHAR
STARTCHAR char47
ENCODING 71
SWIDTH 692 0
DWIDTH 9 0
BBX 8 8 0 0
VVECTOR 4 11
SWIDTH1 0 -1000
DWIDTH1 0 -13
BITMAP 
7E
C0
C0
C0
CF
C3
C3
7F
ENDCHAR
STARTCHAR char48
ENCODING 72
SWIDTH 692 0
DWIDTH 9 0
BBX 8 8 0 0
VVECTOR 4 11
SWIDTH1 0 -1000
DWIDTH1 0 -13
BITMAP 
C3
C3
C3
FF
C3
C3
C3
C3
ENDCHAR
STARTCHAR char49
ENCODING 73
SWIDTH 385 0
DWIDTH 5 0
BBX 2 8 1 0
VVECTOR 2 11
SWIDTH1 0 -1000
DWIDTH1 0 -13
BITMAP 
C0
C0
C0
C0
C0
C0
C0
C0
ENDCHAR
STARTCHAR char4A
ENCODING 74
SWIDTH 462 0
DWIDTH 6 0
BBX 5 8 0 0
VVECTOR 3 11
SWIDTH1 0 -1000
DWIDTH1 0 -13
BITMAP 
18
18
18
18
18
18
18
F0
ENDCHAR
STARTCHAR char4B
ENCODING 75
SWIDTH 692 0
DWIDTH 9 0
BBX 8 8 0 0
VVECTOR 4 11
SWIDTH1 0 -1000
DWIDTH1 0 -13
BITMAP 
C3
C6
CC
D8
F8
EC
C6
C3
ENDCHAR
STARTCHAR char4C
ENCODING 76
SWIDTH 538 0
DWIDTH 7 0
BBX 6 8 0 0
VVECTOR 3 11
SWIDTH1 0 -1000
DWIDTH1 0 -13
BITMAP 
C0
C0
C0
C0
C0
C0
C0
FC
ENDCHAR
STARTCHAR char4D
ENCODING 77
SWIDTH 846 0
DWIDTH 11 0
BBX 10 8 0 0
VVECTOR 5 11
SWIDTH1 0 -1000
DWIDTH1 0 -13
BITMAP 
C0C0
E1C0
F3C0
DEC0
CCC0
C0C0
C0C0
C0C0
ENDCHAR
STARTCHAR char4E
ENCODING 78
SWIDTH 769 0
DWIDTH 10 0
BBX 9 8 0 0
VVECTOR 5 11
SWIDTH1 0 -1000
DWIDTH1 0 -13
BITMAP 
C180
E180
F180
D980
CD80
C780
C380
C180
ENDCHAR
STARTCHAR char4F
ENCODING 79
SWIDTH 692 0
DWIDTH 9 0
BBX 8 8 0 0
VVECTOR 4 11
SWIDTH1 0 -1000
DWIDTH1 0 -13
BITMAP 
7E
C3
C3
C3
C3
C3
C3
7E
ENDCHAR
STARTCHAR char50
ENCODING 80
SWIDTH 692 0
DWIDTH 9 0
BBX 8 8 0 0
VVECTOR 4 11
SWIDTH1 0 -1000
DWIDTH1 0 -13
BITMAP 
FE
C3
C3
C3
FE
C0
C0
C0
ENDCHAR
STARTCHAR char51
ENCODING 81
SWIDTH 692 0
DWIDTH 9 0
BBX 8 9 0 -1
VVECTOR 4 11
SWIDTH1 0 -1000
DWIDTH1 0 -13
BITMAP 
7E
C3
C3
C3
C3
C3
C3
7E
03
ENDCHAR
STARTCHAR char52
ENCODING 82
SWIDTH 692 0
DWIDTH 9 0
BBX 8 8 0 0
VVECTOR 4 11
SWIDTH1 0 -1000
DWIDTH1 0 -13
BITMAP 
FE
C3
C3
C3
FE
C3
C3
C3
ENDCHAR
STARTCHAR char53
ENCODING 83
SWIDTH 538 0
DWIDTH 7 0
BBX 6 8 0 0
VVECTOR 3 11
SWIDTH1 0 -1000
DWIDTH1 0 -13
BITMAP 
7C
C0
E0
70
38
1C
0C
F8
ENDCHAR
STARTCHAR char54
ENCODING 84
SWIDTH 692 0
DWIDTH 9 0
BBX 8 8 0 0
VVECTOR 4 11
SWIDTH1 0 -1000
DWIDTH1 0 -13
BITMAP 
FF
18
18
18
18
18
18
18
ENDCHAR
STARTCHAR char55
ENCODING 85
SWIDTH 692 0
DWIDTH 9 0
BBX 8 8 0 0
VVECTOR 4 11
SWIDTH1 0 -1000
DWIDTH1 0 -13
BITMAP 
C3
C3
C3
C3
C3
C3
C7
7B
ENDCHAR
STARTCHAR char56
ENCODING 86
SWIDTH 615 0
DWIDTH 8 0
BBX 9 8 0 0
VVECTOR 5 11
SWIDTH1 0 -1000
DWIDTH1 0 -13
BITMAP 
C180
C300
C600
CC00
D800
F000
E000
C000
ENDCHAR
STARTCHAR char57
ENCODING 87
SWIDTH 1000 0
DWIDTH 13 0
BBX 14 8 0 0
VVECTOR 7 11
SWIDTH1 0 -1000
DWIDTH1 0 -13
BITMAP 
C00C
C018
C630
CE60
DEC0
F780
E700
C600
ENDCHAR
STARTCHAR char58
ENCODING 88
SWIDTH 769 0
DWIDTH 10 0
BBX 9 8 0 0
VVECTOR 5 11
SWIDTH1 0 -1000
DWIDTH1 0 -13
BITMAP 
C180
6300
3600
1C00
1C00
3600
6300
C180
ENDCHAR
STARTCHAR char59
ENCODING 89
SWIDTH 769 0
DWIDTH 10 0
BBX 10 8 0 0
VVECTOR 5 11
SWIDTH1 0 -1000
DWIDTH1 0 -13
BITMAP 
C0C0
6180
3300
1E00
0C00
0C00
0C00
0C00
ENDCHAR
STARTCHAR char5A
ENCODING 90
SWIDTH 615 0
DWIDTH 8 0
BBX 7 8 0 0
VVECTOR 4 11
SWIDTH1 0 -1000
DWIDTH1 0 -13
BITMAP 
FE
06
0C
18
30
60
C0
FE
ENDCHAR
STARTCHAR char5B
ENCODING 91
SWIDTH 538 0
DWIDTH 7 0
BBX 5 12 0 -2
VVECTOR 3 11
SWIDTH1 0 -1000
DWIDTH1 0 -13
BITMAP 
F8
C0
C0
C0
C0
C0
C0
C0
C0
C0
C0
F8
ENDCHAR
STARTCHAR char5C
ENCODING 92
SWIDTH 538 0
DWIDTH 7 0
BBX 5 8 1 0
VVECTOR 4 11
SWIDTH1 0 -1000
DWIDTH1 0 -13
BITMAP 
C0
C0
60
60
30
30
18
18
ENDCHAR
STARTCHAR char5D
ENCODING 93
SWIDTH 462 0
DWIDTH 6 0
BBX 5 12 0 -2
VVECTOR 3 11
SWIDTH1 0 -1000
DWIDTH1 0 -13
BITMAP 
F8
18
18
18
18
18
18
18
18
18
18
F8
ENDCHAR
STARTCHAR char5E
ENCODING 94
SWIDTH 692 0
DWIDTH 9 0
BBX 5 2 2 9
VVECTOR 5 11
SWIDTH1 0 -1000
DWIDTH1 0 -13
BITMAP 
70
D8
ENDCHAR
STARTCHAR char5F
ENCODING 95
SWIDTH 846 0
DWIDTH 11 0
BBX 11 1 0 -2
VVECTOR 6 11
SWIDTH1 0 -1000
DWIDTH1 0 -13
BITMAP 
FFE0
ENDCHAR
STARTCHAR char60
ENCODING 96
SWIDTH 692 0
DWIDTH 9 0
BBX 3 2 2 9
VVECTOR 4 11
SWIDTH1 0 -1000
DWIDTH1 0 -13
BITMAP 
C0
60
ENDCHAR
STARTCHAR char61
ENCODING 97
SWIDTH 615 0
DWIDTH 8 0
BBX 7 6 0 0
VVECTOR 4 11
SWIDTH1 0 -1000
DWIDTH1 0 -13
BITMAP 
7C
06
7E
C6
C6
7E
ENDCHAR
STARTCHAR char62
ENCODING 98
SWIDTH 615 0
DWIDTH 8 0
BBX 7 8 0 0
VVECTOR 4 11
SWIDTH1 0 -1000
DWIDTH1 0 -13
BITMAP 
C0
C0
FC
C6
C6
C6
C6
FC
ENDCHAR
STARTCHAR char63
ENCODING 99
SWIDTH 538 0
DWIDTH 7 0
BBX 6 6 0 0
VVECTOR 3 11
SWIDTH1 0 -1000
DWIDTH1 0 -13
BITMAP 
7C
C0
C0
C0
C0
7C
ENDCHAR
STARTCHAR char64
ENCODING 100
SWIDTH 615 0
DWIDTH 8 0
BBX 7 8 0 0
VVECTOR 4 11
SWIDTH1 0 -1000
DWIDTH1 0 -13
BITMAP 
06
06
7E
C6
C6
C6
C6
7E
ENDCHAR
STARTCHAR char65
ENCODING 101
SWIDTH 615 0
DWIDTH 8 0
BBX 7 6 0 0
VVECTOR 4 11
SWIDTH1 0 -1000
DWIDTH1 0 -13
BITMAP 
7C
C6
FE
C0
C0
7C
ENDCHAR
STARTCHAR char66
ENCODING 102
SWIDTH 462 0
DWIDTH 6 0
BBX 5 8 0 0
VVECTOR 3 11
SWIDTH1 0 -1000
DWIDTH1 0 -13
BITMAP 
78
C0
C0
F8
C0
C0
C0
C0
ENDCHAR
STARTCHAR char67
ENCODING 103
SWIDTH 615 0
DWIDTH 8 0
BBX 7 8 0 -2
VVECTOR 4 11
SWIDTH1 0 -1000
DWIDTH1 0 -13
BITMAP 
7E
C6
C6
C6
C6
7E
06
7C
ENDCHAR
STARTCHAR char68
ENCODING 104
SWIDTH 615 0
DWIDTH 8 0
BBX 7 8 0 0
VVECTOR 4 11
SWIDTH1 0 -1000
DWIDTH1 0 -13
BITMAP 
C0
C0
FC
C6
C6
C6
C6
C6
ENDCHAR
STARTCHAR char69
ENCODING 105
SWIDTH 385 0
DWIDTH 5 0
BBX 2 8 1 0
VVECTOR 2 11
SWIDTH1 0 -1000
DWIDTH1 0 -13
BITMAP 
C0
00
C0
C0
C0
C0
C0
C0
ENDCHAR
STARTCHAR char6A
ENCODING 106
SWIDTH 385 0
DWIDTH 5 0
BBX 4 10 0 -2
VVECTOR 2 11
SWIDTH1 0 -1000
DWIDTH1 0 -13
BITMAP 
30
00
30
30
30
30
30
30
30
E0
ENDCHAR
STARTCHAR char6B
ENCODING 107
SWIDTH 538 0
DWIDTH 7 0
BBX 7 8 0 0
VVECTOR 4 11
SWIDTH1 0 -1000
DWIDTH1 0 -13
BITMAP 
C0
C0
CC
D8
F0
D8
CC
C6
ENDCHAR
STARTCHAR char6C
ENCODING 108
SWIDTH 385 0
DWIDTH 5 0
BBX 2 8 1 0
VVECTOR 2 11
SWIDTH1 0 -1000
DWIDTH1 0 -13
BITMAP 
C0
C0
C0
C0
C0
C0
C0
C0
ENDCHAR
STARTCHAR char6D
ENCODING 109
SWIDTH 1000 0
DWIDTH 13 0
BBX 12 6 0 0
VVECTOR 6 11
SWIDTH1 0 -1000
DWIDTH1 0 -13
BITMAP 
DCE0
E730
C630
C630
C630
C630
ENDCHAR
STARTCHAR char6E
ENCODING 110
SWIDTH 615 0
DWIDTH 8 0
BBX 7 6 0 0
VVECTOR 4 11
SWIDTH1 0 -1000
DWIDTH1 0 -13
BITMAP 
DC
E6
C6
C6
C6
C6
ENDCHAR
STARTCHAR char6F
ENCODING 111
SWIDTH 615 0
DWIDTH 8 0
BBX 7 6 0 0
VVECTOR 4 11
SWIDTH1 0 -1000
DWIDTH1 0 -13
BITMAP 
7C
C6
C6
C6
C6
7C
ENDCHAR
STARTCHAR char70
ENCODING 112
SWIDTH 615 0
DWIDTH 8 0
BBX 7 8 0 -2
VVECTOR 4 11
SWIDTH1 0 -1000
DWIDTH1 0 -13
BITMAP 
FC
C6
C6
C6
C6
FC
C0
C0
ENDCHAR
STARTCHAR char71
ENCODING 113
SWIDTH 615 0
DWIDTH 8 0
BBX 7 8 0 -2
VVECTOR 4 11
SWIDTH1 0 -1000
DWIDTH1 0 -13
BITMAP 
7E
C6
C6
C6
C6
7E
06
06
ENDCHAR
STARTCHAR char72
ENCODING 114
SWIDTH 538 0
DWIDTH 7 0
BBX 6 6 0 0
VVECTOR 3 11
SWIDTH1 0 -1000
DWIDTH1 0 -13
BITMAP 
DC
E0
C0
C0
C0
C0
ENDCHAR
STARTCHAR char73
ENCODING 115
SWIDTH 462 0
DWIDTH 6 0
BBX 5 6 0 0
VVECTOR 3 11
SWIDTH1 0 -1000
DWIDTH1 0 -13
BITMAP 
78
C0
60
30
18
F0
ENDCHAR
STARTCHAR char74
ENCODING 116
SWIDTH 462 0
DWIDTH 6 0
BBX 5 8 0 0
VVECTOR 3 11
SWIDTH1 0 -1000
DWIDTH1 0 -13
BITMAP 
C0
C0
F8
C0
C0
C0
C0
78
ENDCHAR
STARTCHAR char75
ENCODING 117
SWIDTH 615 0
DWIDTH 8 0
BBX 7 6 0 0
VVECTOR 4 11
SWIDTH1 0 -1000
DWIDTH1 0 -13
BITMAP 
C6
C6
C6
C6
CE
76
ENDCHAR
STARTCHAR char76
ENCODING 118
SWIDTH 615 0
DWIDTH 8 0
BBX 8 6 0 0
VVECTOR 4 11
SWIDTH1 0 -1000
DWIDTH1 0 -13
BITMAP 
C3
C6
CC
D8
F0
E0
ENDCHAR
STARTCHAR char77
ENCODING 119
SWIDTH 923 0
DWIDTH 12 0
BBX 12 6 0 0
VVECTOR 6 11
SWIDTH1 0 -1000
DWIDTH1 0 -13
BITMAP 
C630
CE60
DEC0
F780
E700
C600
ENDCHAR
STARTCHAR char78
ENCODING 120
SWIDTH 615 0
DWIDTH 8 0
BBX 7 6 0 0
VVECTOR 4 11
SWIDTH1 0 -1000
DWIDTH1 0 -13
BITMAP 
C6
6C
38
38
6C
C6
ENDCHAR
STARTCHAR char79
ENCODING 121
SWIDTH 615 0
DWIDTH 8 0
BBX 7 8 0 -2
VVECTOR 4 11
SWIDTH1 0 -1000
DWIDTH1 0 -13
BITMAP 
C6
C6
C6
C6
CE
76
06
7C
ENDCHAR
STARTCHAR char7A
ENCODING 122
SWIDTH 615 0
DWIDTH 8 0
BBX 7 6 0 0
VVECTOR 4 11
SWIDTH1 0 -1000
DWIDTH1 0 -13
BITMAP 
FE
0C
18
30
60
FE
ENDCHAR
STARTCHAR char7B
ENCODING 123
SWIDTH 538 0
DWIDTH 7 0
BBX 6 12 0 -2
VVECTOR 3 11
SWIDTH1 0 -1000
DWIDTH1 0 -13
BITMAP 
1C
30
30
30
30
E0
30
30
30
30
30
1C
ENDCHAR
STARTCHAR char7C
ENCODING 124
SWIDTH 308 0
DWIDTH 4 0
BBX 2 11 1 -1
VVECTOR 2 11
SWIDTH1 0 -1000
DWIDTH1 0 -13
BITMAP 
C0
C0
C0
C0
C0
C0
C0
C0
C0
C0
C0
ENDCHAR
STARTCHAR char7D
ENCODING 125
SWIDTH 538 0
DWIDTH 7 0
BBX 6 12 1 -2
VVECTOR 4 11
SWIDTH1 0 -1000
DWIDTH1 0 -13
BITMAP 
E0
30
30
30
30
1C
30
30
30
30
30
E0
ENDCHAR
STARTCHAR char7E
ENCODING 126
SWIDTH 692 0
DWIDTH 9 0
BBX 6 2 1 9
VVECTOR 4 11
SWIDTH1 0 -1000
DWIDTH1 0 -13
BITMAP 
64
98
ENDCHAR
STARTCHAR char7F
ENCODING 127
SWIDTH 615 0
DWIDTH 8 0
BBX 0 0 8 -2
VVECTOR 8 -2
SWIDTH1 0 0
DWIDTH1 0 0
BITMAP 
ENDCHAR
STARTCHAR char80
ENCODING 128
SWIDTH 692 0
DWIDTH 9 0
BBX 8 10 0 0
VVECTOR 4 11
SWIDTH1 0 -1000
DWIDTH1 0 -13
BITMAP 
66
00
7E
C3
C3
C3
FF
C3
C3
C3
ENDCHAR
STARTCHAR char81
ENCODING 129
SWIDTH 692 0
DWIDTH 9 0
BBX 8 11 0 0
VVECTOR 4 11
SWIDTH1 0 -1000
DWIDTH1 0 -13
BITMAP 
18
24
18
7E
C3
C3
C3
FF
C3
C3
C3
ENDCHAR
STARTCHAR char82
ENCODING 130
SWIDTH 615 0
DWIDTH 8 0
BBX 7 10 0 -2
VVECTOR 4 11
SWIDTH1 0 -1000
DWIDTH1 0 -13
BITMAP 
7E
C0
C0
C0
C0
C0
C0
7E
08
38
ENDCHAR
STARTCHAR char83
ENCODING 131
SWIDTH 615 0
DWIDTH 8 0
BBX 7 11 0 0
VVECTOR 4 11
SWIDTH1 0 -1000
DWIDTH1 0 -13
BITMAP 
0C
18
00
FE
C0
C0
FC
C0
C0
C0
FE
ENDCHAR
STARTCHAR char84
ENCODING 132
SWIDTH 769 0
DWIDTH 10 0
BBX 9 11 0 0
VVECTOR 5 11
SWIDTH1 0 -1000
DWIDTH1 0 -13
BITMAP 
3900
4E00
0000
C180
E180
F180
D980
CD80
C780
C380
C180
ENDCHAR
STARTCHAR char85
ENCODING 133
SWIDTH 692 0
DWIDTH 9 0
BBX 8 10 0 0
VVECTOR 4 11
SWIDTH1 0 -1000
DWIDTH1 0 -13
BITMAP 
66
00
7E
C3
C3
C3
C3
C3
C3
7E
ENDCHAR
STARTCHAR char86
ENCODING 134
SWIDTH 692 0
DWIDTH 9 0
BBX 8 10 0 0
VVECTOR 4 11
SWIDTH1 0 -1000
DWIDTH1 0 -13
BITMAP 
66
00
C3
C3
C3
C3
C3
C3
C7
7B
ENDCHAR
STARTCHAR char87
ENCODING 135
SWIDTH 615 0
DWIDTH 8 0
BBX 7 9 0 0
VVECTOR 4 11
SWIDTH1 0 -1000
DWIDTH1 0 -13
BITMAP 
0C
18
00
7C
06
7E
C6
C6
7E
ENDCHAR
STARTCHAR char88
ENCODING 136
SWIDTH 615 0
DWIDTH 8 0
BBX 7 9 0 0
VVECTOR 4 11
SWIDTH1 0 -1000
DWIDTH1 0 -13
BITMAP 
30
18
00
7C
06
7E
C6
C6
7E
ENDCHAR
STARTCHAR char89
ENCODING 137
SWIDTH 615 0
DWIDTH 8 0
BBX 7 9 0 0
VVECTOR 4 11
SWIDTH1 0 -1000
DWIDTH1 0 -13
BITMAP 
38
6C
00
7C
06
7E
C6
C6
7E
ENDCHAR
STARTCHAR char8A
ENCODING 138
SWIDTH 615 0
DWIDTH 8 0
BBX 7 8 0 0
VVECTOR 4 11
SWIDTH1 0 -1000
DWIDTH1 0 -13
BITMAP 
66
00
7C
06
7E
C6
C6
7E
ENDCHAR
STARTCHAR char8B
ENCODING 139
SWIDTH 615 0
DWIDTH 8 0
BBX 7 9 0 0
VVECTOR 4 11
SWIDTH1 0 -1000
DWIDTH1 0 -13
BITMAP 
72
9C
00
7C
06
7E
C6
C6
7E
ENDCHAR
STARTCHAR char8C
ENCODING 140
SWIDTH 615 0
DWIDTH 8 0
BBX 7 10 0 0
VVECTOR 4 11
SWIDTH1 0 -1000
DWIDTH1 0 -13
BITMAP 
18
24
18
00
7C
06
7E
C6
C6
7E
ENDCHAR
STARTCHAR char8D
ENCODING 141
SWIDTH 538 0
DWIDTH 7 0
BBX 6 8 0 -2
VVECTOR 3 11
SWIDTH1 0 -1000
DWIDTH1 0 -13
BITMAP 
7C
C0
C0
C0
C0
7C
10
30
ENDCHAR
STARTCHAR char8E
ENCODING 142
SWIDTH 615 0
DWIDTH 8 0
BBX 7 9 0 0
VVECTOR 4 11
SWIDTH1 0 -1000
DWIDTH1 0 -13
BITMAP 
0C
18
00
7C
C6
FE
C0
C0
7C
ENDCHAR
STARTCHAR char8F
ENCODING 143
SWIDTH 615 0
DWIDTH 8 0
BBX 7 9 0 0
VVECTOR 4 11
SWIDTH1 0 -1000
DWIDTH1 0 -13
BITMAP 
30
18
00
7C
C6
FE
C0
C0
7C
ENDCHAR
STARTCHAR char90
ENCODING 144
SWIDTH 615 0
DWIDTH 8 0
BBX 7 9 0 0
VVECTOR 4 11
SWIDTH1 0 -1000
DWIDTH1 0 -13
BITMAP 
38
6C
00
7C
C6
FE
C0
C0
7C
ENDCHAR
STARTCHAR char91
ENCODING 145
SWIDTH 615 0
DWIDTH 8 0
BBX 7 8 0 0
VVECTOR 4 11
SWIDTH1 0 -1000
DWIDTH1 0 -13
BITMAP 
66
00
7C
C6
FE
C0
C0
7C
ENDCHAR
STARTCHAR char92
ENCODING 146
SWIDTH 385 0
DWIDTH 5 0
BBX 3 9 1 0
VVECTOR 3 11
SWIDTH1 0 -1000
DWIDTH1 0 -13
BITMAP 
60
C0
00
C0
C0
C0
C0
C0
C0
ENDCHAR
STARTCHAR char93
ENCODING 147
SWIDTH 385 0
DWIDTH 5 0
BBX 3 9 0 0
VVECTOR 2 11
SWIDTH1 0 -1000
DWIDTH1 0 -13
BITMAP 
C0
60
00
60
60
60
60
60
60
ENDCHAR
STARTCHAR char94
ENCODING 148
SWIDTH 385 0
DWIDTH 5 0
BBX 5 9 0 0
VVECTOR 3 11
SWIDTH1 0 -1000
DWIDTH1 0 -13
BITMAP 
70
D8
00
60
60
60
60
60
60
ENDCHAR
STARTCHAR char95
ENCODING 149
SWIDTH 385 0
DWIDTH 5 0
BBX 5 8 0 0
VVECTOR 3 11
SWIDTH1 0 -1000
DWIDTH1 0 -13
BITMAP 
D8
00
60
60
60
60
60
60
ENDCHAR
STARTCHAR char96
ENCODING 150
SWIDTH 615 0
DWIDTH 8 0
BBX 7 9 0 0
VVECTOR 4 11
SWIDTH1 0 -1000
DWIDTH1 0 -13
BITMAP 
72
9C
00
DC
E6
C6
C6
C6
C6
ENDCHAR
STARTCHAR char97
ENCODING 151
SWIDTH 615 0
DWIDTH 8 0
BBX 7 9 0 0
VVECTOR 4 11
SWIDTH1 0 -1000
DWIDTH1 0 -13
BITMAP 
0C
18
00
7C
C6
C6
C6
C6
7C
ENDCHAR
STARTCHAR char98
ENCODING 152
SWIDTH 615 0
DWIDTH 8 0
BBX 7 9 0 0
VVECTOR 4 11
SWIDTH1 0 -1000
DWIDTH1 0 -13
BITMAP 
60
30
00
7C
C6
C6
C6
C6
7C
ENDCHAR
STARTCHAR char99
ENCODING 153
SWIDTH 615 0
DWIDTH 8 0
BBX 7 9 0 0
VVECTOR 4 11
SWIDTH1 0 -1000
DWIDTH1 0 -13
BITMAP 
38
6C
00
7C
C6
C6
C6
C6
7C
ENDCHAR
STARTCHAR char9A
ENCODING 154
SWIDTH 615 0
DWIDTH 8 0
BBX 7 8 0 0
VVECTOR 4 11
SWIDTH1 0 -1000
DWIDTH1 0 -13
BITMAP 
6C
00
7C
C6
C6
C6
C6
7C
ENDCHAR
STARTCHAR char9B
ENCODING 155
SWIDTH 615 0
DWIDTH 8 0
BBX 7 9 0 0
VVECTOR 4 11
SWIDTH1 0 -1000
DWIDTH1 0 -13
BITMAP 
72
9C
00
7C
C6
C6
C6
C6
7C
ENDCHAR
STARTCHAR char9C
ENCODING 156
SWIDTH 615 0
DWIDTH 8 0
BBX 7 9 0 0
VVECTOR 4 11
SWIDTH1 0 -1000
DWIDTH1 0 -13
BITMAP 
0C
18
00
C6
C6
C6
C6
CE
76
ENDCHAR
STARTCHAR char9D
ENCODING 157
SWIDTH 615 0
DWIDTH 8 0
BBX 7 9 0 0
VVECTOR 4 11
SWIDTH1 0 -1000
DWIDTH1 0 -13
BITMAP 
60
30
00
C6
C6
C6
C6
CE
76
ENDCHAR
STARTCHAR char9E
ENCODING 158
SWIDTH 615 0
DWIDTH 8 0
BBX 7 9 0 0
VVECTOR 4 11
SWIDTH1 0 -1000
DWIDTH1 0 -13
BITMAP 
38
6C
00
C6
C6
C6
C6
CE
76
ENDCHAR
STARTCHAR char9F
ENCODING 159
SWIDTH 615 0
DWIDTH 8 0
BBX 7 8 0 0
VVECTOR 4 11
SWIDTH1 0 -1000
DWIDTH1 0 -13
BITMAP 
6C
00
C6
C6
C6
C6
CE
76
ENDCHAR
STARTCHAR charA0
ENCODING 160
SWIDTH 692 0
DWIDTH 9 0
BBX 6 9 1 -1
VVECTOR 4 11
SWIDTH1 0 -1000
DWIDTH1 0 -13
BITMAP 
30
30
FC
30
30
30
30
30
30
ENDCHAR
STARTCHAR charA1
ENCODING 161
SWIDTH 538 0
DWIDTH 7 0
BBX 6 4 0 4
VVECTOR 3 11
SWIDTH1 0 -1000
DWIDTH1 0 -13
BITMAP 
78
CC
CC
78
ENDCHAR
STARTCHAR charA2
ENCODING 162
SWIDTH 692 0
DWIDTH 9 0
BBX 6 8 1 0
VVECTOR 4 11
SWIDTH1 0 -1000
DWIDTH1 0 -13
BITMAP 
10
10
7C
C0
C0
7C
10
10
ENDCHAR
STARTCHAR charA3
ENCODING 163
SWIDTH 692 0
DWIDTH 9 0
BBX 8 8 0 0
VVECTOR 4 11
SWIDTH1 0 -1000
DWIDTH1 0 -13
BITMAP 
38
60
60
FC
60
60
63
7E
ENDCHAR
STARTCHAR charA4
ENCODING 164
SWIDTH 692 0
DWIDTH 9 0
BBX 6 10 1 -2
VVECTOR 4 11
SWIDTH1 0 -1000
DWIDTH1 0 -13
BITMAP 
78
C0
C0
78
CC
CC
78
0C
0C
78
ENDCHAR
STARTCHAR charA5
ENCODING 165
SWIDTH 538 0
DWIDTH 7 0
BBX 4 3 1 3
VVECTOR 3 11
SWIDTH1 0 -1000
DWIDTH1 0 -13
BITMAP 
F0
F0
F0
ENDCHAR
STARTCHAR charA6
ENCODING 166
SWIDTH 846 0
DWIDTH 11 0
BBX 10 9 0 -1
VVECTOR 5 11
SWIDTH1 0 -1000
DWIDTH1 0 -13
BITMAP 
73C0
F300
F300
7300
3300
3300
3300
3300
3300
ENDCHAR
STARTCHAR charA7
ENCODING 167
SWIDTH 692 0
DWIDTH 9 0
BBX 8 8 0 0
VVECTOR 4 11
SWIDTH1 0 -1000
DWIDTH1 0 -13
BITMAP 
7E
C3
C3
CE
C3
C3
C3
DE
ENDCHAR
STARTCHAR charA8
ENCODING 168
SWIDTH 1000 0
DWIDTH 13 0
BBX 11 8 1 0
VVECTOR 7 11
SWIDTH1 0 -1000
DWIDTH1 0 -13
BITMAP 
7FC0
C060
DE60
DB60
DE60
DB60
C060
7FC0
ENDCHAR
STARTCHAR charA9
ENCODING 169
SWIDTH 1000 0
DWIDTH 13 0
BBX 11 8 1 0
VVECTOR 7 11
SWIDTH1 0 -1000
DWIDTH1 0 -13
BITMAP 
7FC0
C060
CE60
D860
D860
CE60
C060
7FC0
ENDCHAR
STARTCHAR charAA
ENCODING 170
SWIDTH 846 0
DWIDTH 11 0
BBX 9 3 1 5
VVECTOR 6 11
SWIDTH1 0 -1000
DWIDTH1 0 -13
BITMAP 
E880
4D80
4A80
ENDCHAR
STARTCHAR charAB
ENCODING 171
SWIDTH 692 0
DWIDTH 9 0
BBX 3 2 3 9
VVECTOR 5 11
SWIDTH1 0 -1000
DWIDTH1 0 -13
BITMAP 
60
C0
ENDCHAR
STARTCHAR charAC
ENCODING 172
SWIDTH 692 0
DWIDTH 9 0
BBX 6 1 1 10
VVECTOR 4 11
SWIDTH1 0 -1000
DWIDTH1 0 -13
BITMAP 
CC
ENDCHAR
STARTCHAR charAD
ENCODING 173
SWIDTH 846 0
DWIDTH 11 0
BBX 8 5 1 2
VVECTOR 5 11
SWIDTH1 0 -1000
DWIDTH1 0 -13
BITMAP 
0C
FF
18
FF
30
ENDCHAR
STARTCHAR charAE
ENCODING 174
SWIDTH 1077 0
DWIDTH 14 0
BBX 13 8 0 0
VVECTOR 7 11
SWIDTH1 0 -1000
DWIDTH1 0 -13
BITMAP 
7FF8
C300
C300
C3F0
FF00
C300
C300
C3F8
ENDCHAR
STARTCHAR charAF
ENCODING 175
SWIDTH 692 0
DWIDTH 9 0
BBX 8 8 0 0
VVECTOR 4 11
SWIDTH1 0 -1000
DWIDTH1 0 -13
BITMAP 
7E
C3
C7
CB
D3
E3
C3
7E
ENDCHAR
STARTCHAR charB0
ENCODING 176
SWIDTH 1000 0
DWIDTH 13 0
BBX 12 5 0 1
VVECTOR 6 11
SWIDTH1 0 -1000
DWIDTH1 0 -13
BITMAP 
79E0
C330
C630
CC30
79E0
ENDCHAR
STARTCHAR charB1
ENCODING 177
SWIDTH 846 0
DWIDTH 11 0
BBX 8 7 1 0
VVECTOR 5 11
SWIDTH1 0 -1000
DWIDTH1 0 -13
BITMAP 
18
18
FF
18
18
00
FF
ENDCHAR
STARTCHAR charB2
ENCODING 178
SWIDTH 692 0
DWIDTH 9 0
BBX 6 7 2 0
VVECTOR 5 11
SWIDTH1 0 -1000
DWIDTH1 0 -13
BITMAP 
30
60
C0
60
30
00
FC
ENDCHAR
STARTCHAR charB3
ENCODING 179
SWIDTH 692 0
DWIDTH 9 0
BBX 5 7 2 0
VVECTOR 5 11
SWIDTH1 0 -1000
DWIDTH1 0 -13
BITMAP 
60
30
18
30
60
00
F8
ENDCHAR
STARTCHAR charB4
ENCODING 180
SWIDTH 846 0
DWIDTH 11 0
BBX 10 8 0 0
VVECTOR 5 11
SWIDTH1 0 -1000
DWIDTH1 0 -13
BITMAP 
C0C0
6180
3300
1E00
0C00
7F80
0C00
0C00
ENDCHAR
STARTCHAR charB5
ENCODING 181
SWIDTH 692 0
DWIDTH 9 0
BBX 8 8 0 -2
VVECTOR 4 11
SWIDTH1 0 -1000
DWIDTH1 0 -13
BITMAP 
C6
C6
C6
C6
C6
FB
C0
C0
ENDCHAR
STARTCHAR charB6
ENCODING 182
SWIDTH 692 0
DWIDTH 9 0
BBX 7 8 1 0
VVECTOR 5 11
SWIDTH1 0 -1000
DWIDTH1 0 -13
BITMAP 
3C
06
7E
C6
C6
C6
C6
7C
ENDCHAR
STARTCHAR charB7
ENCODING 183
SWIDTH 846 0
DWIDTH 11 0
BBX 9 11 1 -1
VVECTOR 6 11
SWIDTH1 0 -1000
DWIDTH1 0 -13
BITMAP 
FF00
6080
3000
1800
0C00
0600
0C00
1800
3000
6080
FF00
ENDCHAR
STARTCHAR charB8
ENCODING 184
SWIDTH 846 0
DWIDTH 11 0
BBX 10 8 0 0
VVECTOR 5 11
SWIDTH1 0 -1000
DWIDTH1 0 -13
BITMAP 
FFC0
3300
3300
3300
3300
3300
3300
3300
ENDCHAR
STARTCHAR charB9
ENCODING 185
SWIDTH 923 0
DWIDTH 12 0
BBX 11 7 0 0
VVECTOR 6 11
SWIDTH1 0 -1000
DWIDTH1 0 -13
BITMAP 
0020
7FC0
9100
3300
3300
3300
2200
ENDCHAR
STARTCHAR charBA
ENCODING 186
SWIDTH 538 0
DWIDTH 7 0
BBX 6 12 0 -2
VVECTOR 3 11
SWIDTH1 0 -1000
DWIDTH1 0 -13
BITMAP 
1C
30
30
30
30
30
30
30
30
30
30
E0
ENDCHAR
STARTCHAR charBB
ENCODING 187
SWIDTH 615 0
DWIDTH 8 0
BBX 7 8 0 0
VVECTOR 4 11
SWIDTH1 0 -1000
DWIDTH1 0 -13
BITMAP 
7C
06
7E
C6
C6
7E
00
FE
ENDCHAR
STARTCHAR charBC
ENCODING 188
SWIDTH 615 0
DWIDTH 8 0
BBX 7 8 0 0
VVECTOR 4 11
SWIDTH1 0 -1000
DWIDTH1 0 -13
BITMAP 
7C
C6
C6
C6
C6
7C
00
FE
ENDCHAR
STARTCHAR charBD
ENCODING 189
SWIDTH 923 0
DWIDTH 12 0
BBX 11 8 0 0
VVECTOR 6 11
SWIDTH1 0 -1000
DWIDTH1 0 -13
BITMAP 
1F00
60C0
C060
C060
60C0
3180
1B00
7BC0
ENDCHAR
STARTCHAR charBE
ENCODING 190
SWIDTH 1000 0
DWIDTH 13 0
BBX 12 6 0 0
VVECTOR 6 11
SWIDTH1 0 -1000
DWIDTH1 0 -13
BITMAP 
7FE0
0630
7FF0
C600
C600
7BE0
ENDCHAR
STARTCHAR charBF
ENCODING 191
SWIDTH 615 0
DWIDTH 8 0
BBX 7 6 0 0
VVECTOR 4 11
SWIDTH1 0 -1000
DWIDTH1 0 -13
BITMAP 
7C
C6
DE
F6
C6
7C
ENDCHAR
STARTCHAR charC0
ENCODING 192
SWIDTH 692 0
DWIDTH 9 0
BBX 7 8 1 0
VVECTOR 5 11
SWIDTH1 0 -1000
DWIDTH1 0 -13
BITMAP 
18
18
00
18
30
60
C0
7E
ENDCHAR
STARTCHAR charC1
ENCODING 193
SWIDTH 308 0
DWIDTH 4 0
BBX 2 8 1 0
VVECTOR 2 11
SWIDTH1 0 -1000
DWIDTH1 0 -13
BITMAP 
C0
00
C0
C0
C0
C0
C0
C0
ENDCHAR
STARTCHAR charC2
ENCODING 194
SWIDTH 846 0
DWIDTH 11 0
BBX 8 3 1 2
VVECTOR 5 11
SWIDTH1 0 -1000
DWIDTH1 0 -13
BITMAP 
FF
03
03
ENDCHAR
STARTCHAR charC3
ENCODING 195
SWIDTH 846 0
DWIDTH 11 0
BBX 9 11 1 -1
VVECTOR 6 11
SWIDTH1 0 -1000
DWIDTH1 0 -13
BITMAP 
0F80
0C00
0C00
0C00
0C00
0C00
0C00
2C00
5C00
8C00
0400
ENDCHAR
STARTCHAR charC4
ENCODING 196
SWIDTH 615 0
DWIDTH 8 0
BBX 6 9 1 -1
VVECTOR 4 11
SWIDTH1 0 -1000
DWIDTH1 0 -13
BITMAP 
1C
30
30
FC
30
30
30
30
E0
ENDCHAR
STARTCHAR charC5
ENCODING 197
SWIDTH 846 0
DWIDTH 11 0
BBX 8 5 1 2
VVECTOR 5 11
SWIDTH1 0 -1000
DWIDTH1 0 -13
BITMAP 
71
8E
00
71
8E
ENDCHAR
STARTCHAR charC6
ENCODING 198
SWIDTH 1077 0
DWIDTH 14 0
BBX 13 8 0 0
VVECTOR 7 11
SWIDTH1 0 -1000
DWIDTH1 0 -13
BITMAP 
0200
0700
0980
10C0
2060
4030
8018
FFF8
ENDCHAR
STARTCHAR charC7
ENCODING 199
SWIDTH 846 0
DWIDTH 11 0
BBX 8 5 1 2
VVECTOR 5 11
SWIDTH1 0 -1000
DWIDTH1 0 -13
BITMAP 
33
66
CC
66
33
ENDCHAR
STARTCHAR charC8
ENCODING 200
SWIDTH 846 0
DWIDTH 11 0
BBX 8 5 1 2
VVECTOR 5 11
SWIDTH1 0 -1000
DWIDTH1 0 -13
BITMAP 
CC
66
33
66
CC
ENDCHAR
STARTCHAR charC9
ENCODING 201
SWIDTH 846 0
DWIDTH 11 0
BBX 10 2 0 0
VVECTOR 5 11
SWIDTH1 0 -1000
DWIDTH1 0 -13
BITMAP 
CCC0
CCC0
ENDCHAR
STARTCHAR charCA
ENCODING 202
SWIDTH 692 0
DWIDTH 9 0
BBX 0 0 1 -2
VVECTOR 1 -2
SWIDTH1 0 0
DWIDTH1 0 0
BITMAP 
ENDCHAR
STARTCHAR charCB
ENCODING 203
SWIDTH 692 0
DWIDTH 9 0
BBX 8 11 0 0
VVECTOR 4 11
SWIDTH1 0 -1000
DWIDTH1 0 -13
BITMAP 
30
18
00
7E
C3
C3
C3
FF
C3
C3
C3
ENDCHAR
STARTCHAR charCC
ENCODING 204
SWIDTH 692 0
DWIDTH 9 0
BBX 8 11 0 0
VVECTOR 4 11
SWIDTH1 0 -1000
DWIDTH1 0 -13
BITMAP 
32
4C
00
7E
C3
C3
C3
FF
C3
C3
C3
ENDCHAR
STARTCHAR charCD
ENCODING 205
SWIDTH 692 0
DWIDTH 9 0
BBX 8 11 0 0
VVECTOR 4 11
SWIDTH1 0 -1000
DWIDTH1 0 -13
BITMAP 
32
4C
00
7E
C3
C3
C3
C3
C3
C3
7E
ENDCHAR
STARTCHAR charCE
ENCODING 206
SWIDTH 1077 0
DWIDTH 14 0
BBX 13 8 0 0
VVECTOR 7 11
SWIDTH1 0 -1000
DWIDTH1 0 -13
BITMAP 
7FF8
C300
C300
C3F0
C300
C300
C300
7FF8
ENDCHAR
STARTCHAR charCF
ENCODING 207
SWIDTH 1000 0
DWIDTH 13 0
BBX 12 6 0 0
VVECTOR 6 11
SWIDTH1 0 -1000
DWIDTH1 0 -13
BITMAP 
7DE0
C630
C7F0
C600
C600
7BE0
ENDCHAR
STARTCHAR charD0
ENCODING 208
SWIDTH 538 0
DWIDTH 7 0
BBX 5 1 1 4
VVECTOR 4 11
SWIDTH1 0 -1000
DWIDTH1 0 -13
BITMAP 
F8
ENDCHAR
STARTCHAR charD1
ENCODING 209
SWIDTH 846 0
DWIDTH 11 0
BBX 11 1 0 4
VVECTOR 6 11
SWIDTH1 0 -1000
DWIDTH1 0 -13
BITMAP 
FFE0
ENDCHAR
STARTCHAR charD2
ENCODING 210
SWIDTH 692 0
DWIDTH 9 0
BBX 6 4 1 4
VVECTOR 4 11
SWIDTH1 0 -1000
DWIDTH1 0 -13
BITMAP 
44
88
CC
CC
ENDCHAR
STARTCHAR charD3
ENCODING 211
SWIDTH 692 0
DWIDTH 9 0
BBX 6 4 1 4
VVECTOR 4 11
SWIDTH1 0 -1000
DWIDTH1 0 -13
BITMAP 
CC
CC
44
88
ENDCHAR
STARTCHAR charD4
ENCODING 212
SWIDTH 385 0
DWIDTH 5 0
BBX 2 4 1 4
VVECTOR 2 11
SWIDTH1 0 -1000
DWIDTH1 0 -13
BITMAP 
40
80
C0
C0
ENDCHAR
STARTCHAR charD5
ENCODING 213
SWIDTH 385 0
DWIDTH 5 0
BBX 2 4 1 4
VVECTOR 2 11
SWIDTH1 0 -1000
DWIDTH1 0 -13
BITMAP 
C0
C0
40
80
ENDCHAR
STARTCHAR charD6
ENCODING 214
SWIDTH 846 0
DWIDTH 11 0
BBX 8 7 1 1
VVECTOR 5 11
SWIDTH1 0 -1000
DWIDTH1 0 -13
BITMAP 
18
18
00
FF
00
18
18
ENDCHAR
STARTCHAR charD7
ENCODING 215
SWIDTH 846 0
DWIDTH 11 0
BBX 9 9 1 0
VVECTOR 6 11
SWIDTH1 0 -1000
DWIDTH1 0 -13
BITMAP 
0800
1C00
3600
6300
C180
6300
3600
1C00
0800
ENDCHAR
STARTCHAR charD8
ENCODING 216
SWIDTH 615 0
DWIDTH 8 0
BBX 7 10 0 -2
VVECTOR 4 11
SWIDTH1 0 -1000
DWIDTH1 0 -13
BITMAP 
6C
00
C6
C6
C6
C6
CE
76
06
7C
ENDCHAR
STARTCHAR missing
ENCODING -1
SWIDTH 769 0
DWIDTH 10 0
BBX 9 10 0 -1
VVECTOR 5 11
SWIDTH1 0 -1000
DWIDTH1 0 -13
BITMAP 
FF80
8180
FC80
F980
F380
E780
FF80
E780
E780
FF80
ENDCHAR
ENDFONT
